<svg width="300" height="226" viewBox="0 0 300 226" fill="none" xmlns="http://www.w3.org/2000/svg">
<path d="M74.8966 201.74C74.8966 187.43 85.5882 175.997 99.9704 175.997C112.742 175.997 118.025 184.156 119.707 187.575L113.918 190.252C111.693 184.68 106.754 178.548 98.505 178.548C89.5501 178.548 80.7218 185.748 80.7218 198.122C80.7218 211.491 90.6898 220.591 102.196 220.591C108.346 220.591 112.96 218.112 116.306 215.037L117.446 216.249C114.371 220.536 108.075 225.276 99.1925 225.276C86.4204 225.276 74.9146 215.905 74.9146 201.74H74.8966Z" fill="#1D1D1D"/>
<path d="M126.763 177.064H133.565V202.011L158.422 177.064H161.135L141.814 196.602L161.605 224.227H153.917L137.129 201.088L133.583 204.634V224.227H126.781V177.064H126.763Z" fill="#1D1D1D"/>
<path d="M262.444 214.024L268.667 212.341C270.132 218.926 276.048 223.196 282.615 223.196C289.182 223.196 293.361 219.686 293.361 214.44C293.361 199.985 264.307 204.689 264.307 188.66C264.307 181.098 271.109 175.997 281.457 175.997C289.724 175.997 297.304 179.742 299.62 186.128L293.451 187.864C291.751 181.768 286.016 178.095 280.534 178.095C274.51 178.095 270.331 181.243 270.331 186.001C270.331 199.026 300 194.648 300 211.636C300 220.066 292.89 225.294 281.692 225.294C272.267 225.294 264.47 221.043 262.444 214.042V214.024Z" fill="#1D1D1D"/>
<path d="M186.299 175.997C172.116 175.997 161.895 188.1 161.895 201.27C161.895 214.44 172.062 225.276 186.1 225.276C200.139 225.276 210.505 213.173 210.505 199.931C210.505 186.688 200.283 175.997 186.299 175.997ZM188.398 222.49C177.055 222.363 168.335 210.695 168.209 197.181C168.1 187.521 173.925 178.692 183.929 178.801C195.272 178.927 204.046 190.596 204.191 204.11C204.3 213.77 198.474 222.599 188.416 222.49H188.398Z" fill="#1D1D1D"/>
<path d="M217.577 177.064H223.619L251.823 217.189H251.95V177.064H255.007V224.208H248.91L220.652 184.083H220.508L220.652 224.208H217.577V177.064Z" fill="#1D1D1D"/>
<path d="M20.7863 199.967V199.84C27.3894 199.569 33.2509 195.191 33.2509 188.732C33.2509 180.23 25.6346 177.064 16.4807 177.064H0V224.208H18.2898C27.9864 224.208 35.2589 220.228 35.2589 211.744C35.2589 203.929 28.7282 200.22 20.7682 199.949L20.7863 199.967ZM6.83832 179.47H15.6485C23.0115 179.47 27.0638 182.437 27.0638 189.257C27.0638 197.163 21.4376 198.99 15.5943 198.99H6.83832V179.47ZM17.2948 221.64H6.83832V201.125H15.8656C23.6085 201.125 28.7463 203.929 28.7463 211.382C28.7463 219.306 24.2236 221.64 17.2948 221.64Z" fill="#1D1D1D"/>
<path d="M42.1706 177.064H70.537V179.47H49.027V198.972H67.5158V201.106H49.027V221.621H70.537V224.208H42.1706V177.064Z" fill="#1D1D1D"/>
<path d="M130.372 39.7286C127.246 36.3037 125.529 31.8947 125.529 27.2156C125.529 22.5365 127.246 18.1372 130.372 14.7027C133.498 18.1276 135.215 22.5365 135.215 27.2156C135.215 31.8947 133.498 36.294 130.372 39.7286Z" fill="#1D1D1D"/>
<path d="M169.623 39.7286C166.497 36.3037 164.78 31.8947 164.78 27.2156C164.78 22.5365 166.497 18.1372 169.623 14.7027C172.749 18.1276 174.466 22.5365 174.466 27.2156C174.466 31.8947 172.749 36.294 169.623 39.7286Z" fill="#1D1D1D"/>
<path d="M149.991 23.0192C147.116 19.8644 145.534 15.8124 145.534 11.5096C145.534 7.20677 147.106 3.15477 149.991 0C152.866 3.15477 154.448 7.20677 154.448 11.5096C154.448 15.8124 152.876 19.8644 149.991 23.0192Z" fill="#1D1D1D"/>
<path d="M130.371 81.2526C126.676 77.2006 124.65 71.9909 124.65 66.4725C124.65 60.954 126.676 55.7443 130.371 51.6923C134.066 55.7443 136.092 60.954 136.092 66.4725C136.092 71.9909 134.066 77.2006 130.371 81.2526Z" fill="#1D1D1D"/>
<path d="M169.63 81.2526C165.934 77.2006 163.908 71.9909 163.908 66.4725C163.908 60.954 165.934 55.7443 169.63 51.6923C173.325 55.7443 175.351 60.954 175.351 66.4725C175.351 71.9909 173.325 77.2006 169.63 81.2526Z" fill="#1D1D1D"/>
<path d="M149.99 52.1082C144.906 52.1082 140.121 50.2462 136.387 46.8406C140.111 43.435 144.906 41.573 149.99 41.573C155.075 41.573 159.86 43.435 163.594 46.8406C159.87 50.2462 155.075 52.1082 149.99 52.1082Z" fill="#1D1D1D"/>
<path d="M189.249 52.1082C184.165 52.1082 179.379 50.2462 175.646 46.8406C179.37 43.435 184.165 41.573 189.249 41.573C194.333 41.573 199.118 43.435 202.852 46.8406C199.128 50.2462 194.333 52.1082 189.249 52.1082Z" fill="#1D1D1D"/>
<path d="M110.744 52.1082C105.66 52.1082 100.875 50.2462 97.1413 46.8406C100.865 43.435 105.66 41.573 110.744 41.573C115.829 41.573 120.614 43.435 124.348 46.8406C120.624 50.2462 115.829 52.1082 110.744 52.1082Z" fill="#1D1D1D"/>
<path d="M205.47 72.1931C199.951 72.1931 194.742 70.1671 190.69 66.472C194.742 62.777 199.951 60.751 205.47 60.751C210.988 60.751 216.198 62.777 220.25 66.472C216.198 70.1671 210.988 72.1931 205.47 72.1931Z" fill="#1D1D1D"/>
<path d="M94.5297 72.1931C89.0113 72.1931 83.8016 70.1671 79.7496 66.472C83.8016 62.777 89.0113 60.751 94.5297 60.751C100.048 60.751 105.258 62.777 109.31 66.472C105.258 70.1671 100.048 72.1931 94.5297 72.1931Z" fill="#1D1D1D"/>
<path d="M130.372 93.2147C127.246 96.6396 125.529 101.049 125.529 105.728C125.529 110.407 127.246 114.806 130.372 118.241C133.498 114.816 135.215 110.407 135.215 105.728C135.215 101.049 133.498 96.6493 130.372 93.2147Z" fill="#1D1D1D"/>
<path d="M169.623 93.2147C166.497 96.6396 164.78 101.049 164.78 105.728C164.78 110.407 166.497 114.806 169.623 118.241C172.749 114.816 174.466 110.407 174.466 105.728C174.466 101.049 172.749 96.6493 169.623 93.2147Z" fill="#1D1D1D"/>
<path d="M149.991 109.915C147.116 113.07 145.534 117.122 145.534 121.425C145.534 125.728 147.106 129.78 149.991 132.935C152.866 129.78 154.448 125.728 154.448 121.425C154.448 117.122 152.876 113.07 149.991 109.915Z" fill="#1D1D1D"/>
<path d="M130.371 51.6827C126.676 55.7347 124.65 60.9444 124.65 66.4628C124.65 71.9813 126.676 77.191 130.371 81.243C134.066 77.191 136.092 71.9813 136.092 66.4628C136.092 60.9444 134.066 55.7347 130.371 51.6827Z" fill="#1D1D1D"/>
<path d="M169.63 51.6827C165.934 55.7347 163.908 60.9444 163.908 66.4628C163.908 71.9813 165.934 77.191 169.63 81.243C173.325 77.191 175.351 71.9813 175.351 66.4628C175.351 60.9444 173.325 55.7347 169.63 51.6827Z" fill="#1D1D1D"/>
<path d="M149.99 80.8376C144.906 80.8376 140.121 82.6996 136.387 86.1052C140.111 89.5108 144.906 91.3728 149.99 91.3728C155.075 91.3728 159.86 89.5108 163.594 86.1052C159.87 82.6996 155.075 80.8376 149.99 80.8376Z" fill="#1D1D1D"/>
<path d="M189.249 80.8376C184.165 80.8376 179.379 82.6996 175.646 86.1052C179.37 89.5108 184.165 91.3728 189.249 91.3728C194.333 91.3728 199.118 89.5108 202.852 86.1052C199.128 82.6996 194.333 80.8376 189.249 80.8376Z" fill="#1D1D1D"/>
<path d="M110.744 80.8376C105.66 80.8376 100.875 82.6996 97.1413 86.1052C100.865 89.5108 105.66 91.3728 110.744 91.3728C115.829 91.3728 120.614 89.5108 124.348 86.1052C120.624 82.6996 115.829 80.8376 110.744 80.8376Z" fill="#1D1D1D"/>
<path d="M205.47 60.751C199.951 60.751 194.742 62.777 190.69 66.472C194.742 70.1671 199.951 72.1931 205.47 72.1931C210.988 72.1931 216.198 70.1671 220.25 66.472C216.198 62.777 210.988 60.751 205.47 60.751Z" fill="#1D1D1D"/>
<path d="M94.5297 60.751C89.0113 60.751 83.8016 62.777 79.7496 66.472C83.8016 70.1671 89.0113 72.1931 94.5297 72.1931C100.048 72.1931 105.258 70.1671 109.31 66.472C105.258 62.777 100.048 60.751 94.5297 60.751Z" fill="#1D1D1D"/>
</svg>
